<svg width="350" height="279" viewBox="0 0 350 279" fill="none" xmlns="http://www.w3.org/2000/svg">
<path d="M0 14.3814C0 6.43879 6.47522 0 14.4628 0H335.537C343.525 0 350 6.43879 350 14.3814V184.082C350 192.025 343.525 198.464 335.537 198.464H14.4628C6.47521 198.464 0 192.025 0 184.082V14.3814Z" fill="#9EE52D"/>
<path d="M0 54.6495C0 46.7068 6.47522 40.268 14.4628 40.268H335.537C343.525 40.268 350 46.7068 350 54.6495V224.35C350 232.293 343.525 238.732 335.537 238.732H14.4628C6.47521 238.732 0 232.293 0 224.35V54.6495Z" fill="#F84C89"/>
<path d="M0 94.9175C0 86.9749 6.47522 80.5361 14.4628 80.5361H335.537C343.525 80.5361 350 86.9749 350 94.9175V264.619C350 272.561 343.525 279 335.537 279H14.4628C6.47521 279 0 272.561 0 264.619V94.9175Z" fill="#FF9500"/>
<path d="M61.6694 142.319C67.0689 142.319 71.697 144.581 75.5537 149.107C79.4876 153.632 81.4545 159.538 81.4545 166.825C81.4545 174.035 80.5675 184.581 78.7934 198.464H58.5454L56.2314 172.692C55.46 164.485 53.2231 160.382 49.5207 160.382C45.124 160.382 42.7713 164.524 42.4628 172.807L41.6529 198.464H20.3636L17.9339 143.929H44.0826L43.6198 153.709C44.0055 152.942 44.8926 151.753 46.281 150.142C47.6694 148.532 49.0193 147.228 50.3306 146.23C53.7245 143.623 57.5041 142.319 61.6694 142.319Z" fill="white"/>
<path d="M108.225 199.614C102.286 199.614 97.3877 197.889 93.531 194.437C89.7514 190.986 87.8616 186.115 87.8616 179.826C87.8616 173.459 90.0214 168.857 94.3409 166.019C98.6605 163.105 103.867 161.647 109.961 161.647C116.054 161.647 121.338 162.606 125.812 164.524C124.809 158.158 120.76 154.974 113.663 154.974C110.424 154.974 106.413 155.626 101.63 156.93L98.7376 146.576C105.68 143.738 112.738 142.319 119.911 142.319C140.583 142.319 150.919 151.063 150.919 168.551C150.919 174.533 150.225 182.817 148.837 193.402L148.258 198.464H129.167L128.473 192.136C123.228 197.122 116.479 199.614 108.225 199.614ZM118.638 185.348C122.109 185.348 125.079 184.389 127.548 182.472L126.853 174.878C124.925 173.574 122.765 172.922 120.374 172.922C118.06 172.922 116.132 173.498 114.589 174.648C113.123 175.799 112.39 177.218 112.39 178.905C112.39 180.593 112.969 182.088 114.126 183.392C115.283 184.696 116.787 185.348 118.638 185.348Z" fill="white"/>
<path d="M241.238 142.319C247.486 142.319 252.114 144.773 255.122 149.682C258.13 154.591 259.635 160.497 259.635 167.4C259.635 174.226 258.747 184.581 256.973 198.464H236.725L234.18 171.772C233.717 167.17 233.1 164.102 232.329 162.568C231.557 161.034 230.246 160.267 228.395 160.267C223.998 160.267 221.53 164.14 220.99 171.887L219.023 198.464H198.428L195.882 171.772C195.42 167.17 194.803 164.102 194.031 162.568C193.26 161.034 191.949 160.267 190.097 160.267C185.546 160.267 183.078 164.14 182.692 171.887L181.535 198.464H160.246L157.816 143.929H183.965L183.502 154.859C183.657 154.553 183.849 154.131 184.081 153.594C184.389 152.98 185.084 151.945 186.163 150.487C187.32 149.03 188.593 147.765 189.982 146.691C191.37 145.617 193.26 144.62 195.651 143.699C198.119 142.779 200.742 142.319 203.519 142.319C207.993 142.319 211.618 143.738 214.395 146.576C217.249 149.414 219.1 152.558 219.949 156.01C221.106 154.092 222.108 152.558 222.957 151.408C223.805 150.257 225.078 148.877 226.775 147.266C230.246 143.968 235.067 142.319 241.238 142.319Z" fill="white"/>
<path d="M274.378 192.826C268.825 188.224 266.048 180.938 266.048 170.967C266.048 160.995 268.825 153.747 274.378 149.222C280.009 144.62 287.491 142.319 296.825 142.319C306.158 142.319 313.602 144.62 319.155 149.222C324.786 153.747 327.602 160.995 327.602 170.967C327.602 180.938 324.786 188.224 319.155 192.826C313.602 197.352 306.158 199.614 296.825 199.614C287.491 199.614 280.009 197.352 274.378 192.826ZM291.965 157.966C291.04 160.574 290.577 164.907 290.577 170.967C290.577 177.026 291.04 181.398 291.965 184.082C292.891 186.69 294.511 187.994 296.825 187.994C299.139 187.994 300.759 186.69 301.684 184.082C302.61 181.398 303.073 177.026 303.073 170.967C303.073 164.907 302.61 160.574 301.684 157.966C300.759 155.281 299.139 153.939 296.825 153.939C294.511 153.939 292.891 155.281 291.965 157.966Z" fill="white"/>
</svg>
