<?xml version="1.0" encoding="UTF-8"?><svg id="Layer_1" xmlns="http://www.w3.org/2000/svg" xmlns:xlink="http://www.w3.org/1999/xlink" viewBox="0 0 645.73 194.59"><defs><style>.cls-1{fill:url(#radial-gradient-7);}.cls-2{fill:url(#radial-gradient-6);}.cls-3{fill:url(#radial-gradient-5);}.cls-4{fill:url(#radial-gradient-4);}.cls-5{fill:url(#radial-gradient-9);}.cls-6{fill:url(#radial-gradient-8);}.cls-7{fill:url(#radial-gradient-3);}.cls-8{fill:url(#radial-gradient-2);}.cls-9{fill:url(#radial-gradient);}.cls-10{fill:#6acbe1;}.cls-11{fill:url(#radial-gradient-16);}.cls-12{fill:url(#radial-gradient-12);}.cls-13{fill:url(#radial-gradient-14);}.cls-14{fill:url(#radial-gradient-13);}.cls-15{fill:url(#radial-gradient-10);}.cls-16{fill:url(#radial-gradient-17);}.cls-17{fill:url(#radial-gradient-19);}.cls-18{fill:url(#radial-gradient-11);}.cls-19{fill:url(#radial-gradient-18);}.cls-20{fill:url(#radial-gradient-15);}.cls-21{fill:url(#radial-gradient-22);}.cls-22{fill:url(#radial-gradient-20);}.cls-23{fill:url(#radial-gradient-21);}</style><radialGradient id="radial-gradient" cx="300.36" cy="17.43" fx="300.36" fy="17.43" r="169.69" gradientUnits="userSpaceOnUse"><stop offset="0" stop-color="#fff23a"/><stop offset=".14" stop-color="#ffcf15"/><stop offset=".19" stop-color="#fdc90e"/><stop offset=".28" stop-color="#fdc60b"/><stop offset=".67" stop-color="#f28f3f"/><stop offset=".89" stop-color="#ed693c"/></radialGradient><radialGradient id="radial-gradient-2" cx="300.36" cy="17.43" fx="300.36" fy="17.43" r="169.69" gradientUnits="userSpaceOnUse"><stop offset="0" stop-color="#fff23a"/><stop offset=".04" stop-color="#fee52c"/><stop offset=".12" stop-color="#fdd41a"/><stop offset=".2" stop-color="#fdc90e"/><stop offset=".28" stop-color="#fdc60b"/><stop offset=".67" stop-color="#f28f3f"/><stop offset=".89" stop-color="#ed693c"/></radialGradient><radialGradient id="radial-gradient-3" cx="300.36" cy="17.43" fx="300.36" fy="17.43" r="169.69" xlink:href="#radial-gradient-2"/><radialGradient id="radial-gradient-4" cx="300.36" cy="17.43" fx="300.36" fy="17.43" r="169.69" xlink:href="#radial-gradient-2"/><radialGradient id="radial-gradient-5" cx="300.36" cy="17.43" fx="300.36" fy="17.43" r="169.69" xlink:href="#radial-gradient-2"/><radialGradient id="radial-gradient-6" cx="300.36" cy="17.43" fx="300.36" fy="17.43" r="169.69" xlink:href="#radial-gradient-2"/><radialGradient id="radial-gradient-7" cx="300.36" cy="17.43" fx="300.36" fy="17.43" r="169.69" xlink:href="#radial-gradient-2"/><radialGradient id="radial-gradient-8" cx="300.36" cy="17.43" fx="300.36" fy="17.43" r="169.69" xlink:href="#radial-gradient-2"/><radialGradient id="radial-gradient-9" cx="300.36" cy="17.43" fx="300.36" fy="17.43" r="169.69" xlink:href="#radial-gradient-2"/><radialGradient id="radial-gradient-10" cx="300.36" cy="17.43" fx="300.36" fy="17.43" r="169.69" xlink:href="#radial-gradient-2"/><radialGradient id="radial-gradient-11" cx="300.36" cy="17.43" fx="300.36" fy="17.43" r="169.69" xlink:href="#radial-gradient-2"/><radialGradient id="radial-gradient-12" cx="300.36" cy="17.43" fx="300.36" fy="17.43" r="169.69" xlink:href="#radial-gradient-2"/><radialGradient id="radial-gradient-13" cx="300.36" cy="17.43" fx="300.36" fy="17.43" r="169.69" xlink:href="#radial-gradient-2"/><radialGradient id="radial-gradient-14" cx="300.36" cy="17.43" fx="300.36" fy="17.43" r="169.69" xlink:href="#radial-gradient-2"/><radialGradient id="radial-gradient-15" cx="300.36" cy="17.43" fx="300.36" fy="17.43" r="169.69" xlink:href="#radial-gradient-2"/><radialGradient id="radial-gradient-16" cx="300.36" cy="17.43" fx="300.36" fy="17.43" r="169.69" xlink:href="#radial-gradient-2"/><radialGradient id="radial-gradient-17" cx="300.36" cy="17.43" fx="300.36" fy="17.43" r="169.69" xlink:href="#radial-gradient-2"/><radialGradient id="radial-gradient-18" cx="300.36" cy="17.43" fx="300.36" fy="17.43" r="169.69" xlink:href="#radial-gradient-2"/><radialGradient id="radial-gradient-19" cx="300.36" cy="17.43" fx="300.36" fy="17.43" r="169.69" xlink:href="#radial-gradient-2"/><radialGradient id="radial-gradient-20" cx="300.36" fx="300.36" r="169.69" xlink:href="#radial-gradient-2"/><radialGradient id="radial-gradient-21" cx="300.36" cy="17.43" fx="300.36" fy="17.43" r="169.69" xlink:href="#radial-gradient-2"/><radialGradient id="radial-gradient-22" cx="300.36" cy="17.43" fx="300.36" fy="17.43" r="169.69" xlink:href="#radial-gradient-2"/></defs><polygon class="cls-10" points="329.4 59.02 321.11 42.16 312.54 59.31 321.41 75.88 329.4 59.02"/><path class="cls-9" d="M274.88,166.29c-6.73-.63-9.52,4.33-9.52,4.33l-8.72,16.91h9v-3.32h7.77v3.32h8.15s-9.43-15.25-9.28-17.15c.14-1.89,2.61-4.09,2.61-4.09ZM266.49,180.24l2.51-5.26,2.84,5.26h-5.35Z"/><path class="cls-8" d="M235.89,178.58c2.75,0,2.56-4.03,2.56-4.03,0-5.4-6.25-5.4-6.25-5.4h-5.59l.99-3.55-7.96,5.68v16.48h12.41c4.07,0,6.4-1.94,6.4-5.21s-2.56-3.98-2.56-3.98ZM231.41,183.46h-4.8v-3.22h2.97c1.71,0,3.54.57,3.54,1.89s-1.71,1.33-1.71,1.33ZM231.41,176.59h-4.8v-3.22h2.97c1.71,0,3.54.57,3.54,1.89s-1.71,1.33-1.71,1.33Z"/><path class="cls-7" d="M144,113.87c0,6.82,1.01,25.39,1.01,25.39-20.84,23.49-41.56,29.18-41.56,29.18,26.15-24.25,17.05-75.54,17.05-75.54l-34.11,29.56-22.86-24.13c-1.26-17.68,2.78-31.83,2.78-31.83l21.73,23.49L173.94,14.72c-35.24,14.15-65.37,11.43-75.41,9.54-10.04-1.89-24.44-2.27-29.75-.19-5.31,2.08-16.86,5.68-16.86,5.68,2.65-4.55,20.46-16.48,20.46-16.48-15.35,6.63-22.17,3.79-33.73,8.34C7.2,42.44,5.31,60.44,5.31,60.44c0,0,.19,75.41-.19,82.04-.38,6.63-5.12,22.74-5.12,22.74l33.73-27.47s.19-27.28-.19-37.52c-.38-10.23-2.84-28.17-2.84-28.17,9.47-15.16,41.56-30.06,41.56-30.06-19.2,17.68-17.18,46.99-17.18,46.99l2.4,57.73L2.78,194.59c65.68-12.63,93.85-6.69,122.27-5.68,41.05-10.11,45.6-42.19,45.6-42.19,0,0,.51-83.37.51-86.65s5.05-15.54,5.05-15.54l-31.71,27.54s-.51,34.99-.51,41.81Z"/><path class="cls-4" d="M275.87,93.28s-19.14-35.75,4.93-70.48l-27.85,1.45-17.43,25.77-16.67-25.58-23.43-1.64s12.63,31.07,0,70.48h29.31s-7.2-12.38-6.06-36.25l16.67,23.87,16.67-24.25s2.08,20.59-5.49,36.63h29.37Z"/><path class="cls-3" d="M326.27,97.58c38.27-6.32,41.81-48.76,25.52-64.29-16.29-15.54-40.04-7.2-40.04-7.2,2.27-4.55,14.4-9.09,14.4-9.09-7.83-.25-27.41.76-39.92,20.59-13.89,24.88,1.77,66.32,40.04,60ZM317.96,34.74c23.08-2.82,32.09,22.41,23.6,39.47-7.64,13.59-21.74,17.1-26.53,16.93,0,0,11.87-8,13.26-11.12,0,0-14,5.6-23.96-5.05-9.95-10.65-9.64-37.39,13.62-40.23Z"/><path class="cls-2" d="M360,93.28h45.85s19.89-1.01,20.46-19.96c0-12.13-10.42-15.88-10.42-15.88,0,0,8.34-5.91,7.2-19.17-1.14-13.26-18.38-16.67-28.23-16.67h-33.88s22.89,35.94-.98,71.68ZM396.39,35.31c3.04.25,9.85.76,10.22,8.21.38,7.45-6.69,8.21-6.69,8.21h-11.87c.63-5.05-1.89-16.42-1.89-16.42,0,0,7.2-.25,10.24,0ZM388.55,64.23s7.33.13,10.36,0c3.03-.13,11.24.88,9.85,8.59-1.39,7.71-9.73,7.2-9.73,7.2h-13.89c2.65-3.79,3.41-15.79,3.41-15.79Z"/><path class="cls-1" d="M458.91,93.28c-11.62-38.91-1.26-70.99-1.26-70.99h-28.42c10.48,50.53,0,70.99,0,70.99h29.68Z"/><path class="cls-6" d="M518.59,93.28c7.01-8.46,6.44-21.16,6.44-21.16-8.15,6.38-21.41,6.7-21.41,6.7h-14.02s-.19-4.74-.19-18,8.91-26.91,8.91-26.91c-7.77,1.71-18,9.54-18,9.54,3.41-12.06,23.31-26.5,23.31-26.5-7.58,2.75-38.08,5.33-38.08,5.33,9.66,43.14-1.33,70.99-1.33,70.99h54.38Z"/><path class="cls-5" d="M645.73,0c-18.76,19.89-45.09,28.04-50.21,21.41-5.12-6.63,3.6-11.56,3.6-11.56-23.68,1.52-54,17.43-54,17.43l13.26-13.83-28.8,8.84c9.66,36.69-1.52,72.44-1.52,72.44h55.14c21.6-10.99,23.31-27.85,23.31-27.85,0,0-4.74,1.89-14.21,8.15-9.47,6.25-30.13,6.06-35.05,3.22-4.93-2.84-3.41-14.78-3.41-14.78h21.22l12.6-15.35c-5.02,3.22-26.43,2.84-30.41,2.46-3.98-.38-3.41-7.2-2.65-10.8,5.68-7.39,22.55-7.58,30.51-6.63,7.96.95,6.44,13.45,6.44,13.45,39.22-16.29,54.19-46.61,54.19-46.61Z"/><path class="cls-15" d="M224.59,147.6h-8.59c-5.31-32.72,3.79-44.34,3.79-44.34h-23.62c1.39,4.04,4.17,16.55,3.66,30.32-.51,13.77-10.36,31.71-10.36,31.71,6.82-2.4,23.87-13.01,23.87-13.01l-10.11,11.24,31.83-4.17c6.95-5.56,6.44-18.95,6.44-18.95-7.71,7.71-16.93,7.2-16.93,7.2Z"/><path class="cls-18" d="M267.28,147.47l-1.89-11.37s13.89-1.39,21.35,3.03l-.25-15.28s-9.09,3.79-20.72,2.91c0,0-.51-10.48,1.01-11.37l24.38.63,7.58-12.76h-50.65s9.98,26.65,0,55.45h50.04s-8.23-9.35-8.61-12c0,0-19.2,1.14-22.23.76Z"/><path class="cls-12" d="M348,160.86s7.58-13.01,6.19-34.36h-20.72l-7.26,12.51h13.45s-2.27,7.71-9.98,8.72c-7.71,1.01-18.06-4.42-17.68-15.92.38-11.49,10.23-17.81,21.98-16.8,11.75,1.01,19.58,4.42,19.58,4.42l-5.56-16.17h-24.13s-23.07-.88-25.74,27.28c0,0-2.3,25.89,22.21,30.69h11.62l-3.66,5.05,19.71-5.43Z"/><path class="cls-14" d="M406.48,118.67c-.25-10.11-5.18-15.41-5.18-15.41h-41.31s9.98,28.55,0,55.45h39.79s5.94-6.19,6.69-14.15c0,0-10.11,3.54-21.35,3.16l-7.07-.38c1.14-4.8.76-10.86.76-10.86,7.71-.51,18.32,1.77,18.32,1.77v-13.26c-4.04,1.77-18.32,1.64-18.32,1.64,0-3.41-1.26-11.37-1.26-11.37h13.64c9.09,0,15.28,3.41,15.28,3.41Z"/><path class="cls-13" d="M430.29,130.99s9.47,6.82,17.24,27.73h22.36s-7.96-30.06,0-55.45h-24.06s6.06,13.77,4.36,27.73c0,0-12.13-13.33-18.76-27.73h-20.08s9.28,24.32,0,55.45h22.36s-4.17-13.08-3.41-27.73Z"/><path class="cls-20" d="M495.38,103.26h-19.89s5.59,28.58,0,55.46h28.85s26.48-.98,27.14-26.84c.66-25.86-26.91-28.61-36.09-28.61ZM494.63,145.8l-.67-28.99s20.75-2.08,20.75,14.18-20.08,14.81-20.08,14.81Z"/><path class="cls-11" d="M577.39,120.57l4.48.6s13.96-16.36,19.01-27.88l-20.84,11.24s-44.59-2.15-49.01-1.27c0,0,9.47,17.43,8.84,27.73,0,0,6.95,4.99,14.53,6.38,7.58,1.39,14.15,5.68,14.15,5.68h-2.59s.19,6.82-10.17,6.06c-10.36-.76-17.05-8.72-17.05-8.72,0,0-3.28,10.36-10.67,18.32l52.61,3.54,19.07-14.02s-10.86,1.14-16.17,3.66c0,0,7.83-17.05-10.61-24.13-14.27-4.93-20.59-4.04-20.59-10.11s18.82-4.67,25.01,2.91Z"/><path class="cls-16" d="M315.38,178.44l-8.43-9.24-5.73-.05v15.87l-.95,2.51h7.25v-8.95l7.44,8.95h6.82v-14.45s.33-4.36,1.94-5.87l-8.34,1.75v9.47Z"/><path class="cls-19" d="M342.09,178.96c0,7.53,7.67,8.57,7.67,8.57h12.51v-10.16l-8.48.92c2.56,1.42,2.98,4.5.56,4.5-3.6,0-5.73-1.14-5.73-4.41s3.74-4.97,6.68-4.97,7.01,1.85,7.01,1.85l3.13-8.24c-2.98.81-10.61,1.56-14.97,1.56s-8.38,2.84-8.38,10.37Z"/><path class="cls-17" d="M463.85,166.29c-6.73-.63-9.52,4.33-9.52,4.33l-8.72,16.91h9v-3.32h7.77v3.32h8.15s-9.43-15.25-9.28-17.15c.14-1.89,2.61-4.09,2.61-4.09ZM455.46,180.24l2.51-5.26,2.84,5.26h-5.35Z"/><path class="cls-22" d="M427.42,174.55c0-5.4-6.25-5.4-6.25-5.4h-5.59l.99-3.55-7.96,5.68v16.48h12.41c4.07,0,6.4-1.94,6.4-5.21s-2.56-3.98-2.56-3.98c2.75,0,2.56-4.03,2.56-4.03ZM420.38,183.46h-4.8v-3.22h2.97c1.71,0,3.54.57,3.54,1.89s-1.71,1.33-1.71,1.33ZM420.38,176.59h-4.8v-3.22h2.97c1.71,0,3.54.57,3.54,1.89s-1.71,1.33-1.71,1.33Z"/><path class="cls-23" d="M504.35,178.44l-8.43-9.24-5.73-.05v15.87l-.95,2.51h7.25v-8.95l7.44,8.95h6.82v-14.45s.33-4.36,1.94-5.87l-8.34,1.75v9.47Z"/><path class="cls-21" d="M531.06,178.96c0,7.53,7.67,8.57,7.67,8.57h12.51v-10.16l-8.48.92c2.56,1.42,2.98,4.5.56,4.5-3.6,0-5.73-1.14-5.73-4.41s3.74-4.97,6.68-4.97,7.01,1.85,7.01,1.85l3.13-8.24c-2.98.81-10.61,1.56-14.97,1.56s-8.38,2.84-8.38,10.37Z"/></svg>